<?xml version="1.0" standalone="no"?><!DOCTYPE svg PUBLIC "-//W3C//DTD SVG 1.1//EN" "http://www.w3.org/Graphics/SVG/1.1/DTD/svg11.dtd">
<svg t="1663558013424" class="icon" viewBox="0 0 1024 1024" version="1.1" xmlns="http://www.w3.org/2000/svg" p-id="1759" width="64" height="64"
     xmlns:xlink="http://www.w3.org/1999/xlink">
    <path d="M874.666667 469.333333 810.666667 469.333333 810.666667 298.666667c0-46.933333-38.4-85.333333-85.333333-85.333333l-170.666667 0L554.666667 149.333333C554.666667 89.6 507.733333 42.666667 448 42.666667 388.266667 42.666667 341.333333 89.6 341.333333 149.333333L341.333333 213.333333 170.666667 213.333333C123.733333 213.333333 85.333333 251.733333 85.333333 298.666667l0 162.133333 64 0c64 0 115.2 51.2 115.2 115.2S213.333333 691.2 149.333333 691.2L85.333333 691.2 85.333333 853.333333c0 46.933333 38.4 85.333333 85.333333 85.333333l162.133333 0 0-64c0-64 51.2-115.2 115.2-115.2 64 0 115.2 51.2 115.2 115.2L563.2 938.666667 725.333333 938.666667c46.933333 0 85.333333-38.4 85.333333-85.333333l0-170.666667 64 0c59.733333 0 106.666667-46.933333 106.666667-106.666667S934.4 469.333333 874.666667 469.333333z"
          p-id="1760" fill="#1296db"></path>
</svg>